<svg id="visual" viewBox="0 0 900 900" width="900" height="900" xmlns="http://www.w3.org/2000/svg" xmlns:xlink="http://www.w3.org/1999/xlink" version="1.1"><rect x="0" y="0" width="900" height="900" fill="#72d9d1"></rect><path d="M0 650L18.8 651.5C37.7 653 75.3 656 112.8 673.8C150.3 691.7 187.7 724.3 225.2 720.5C262.7 716.7 300.3 676.3 337.8 676.2C375.3 676 412.7 716 450.2 712.5C487.7 709 525.3 662 562.8 639.8C600.3 617.7 637.7 620.3 675.2 630C712.7 639.7 750.3 656.3 787.8 653.7C825.3 651 862.7 629 881.3 618L900 607L900 0L881.3 0C862.7 0 825.3 0 787.8 0C750.3 0 712.7 0 675.2 0C637.7 0 600.3 0 562.8 0C525.3 0 487.7 0 450.2 0C412.7 0 375.3 0 337.8 0C300.3 0 262.7 0 225.2 0C187.7 0 150.3 0 112.8 0C75.3 0 37.7 0 18.8 0L0 0Z" fill="#72d9d1"></path><path d="M0 644L18.8 619.7C37.7 595.3 75.3 546.7 112.8 540.7C150.3 534.7 187.7 571.3 225.2 571.2C262.7 571 300.3 534 337.8 538.7C375.3 543.3 412.7 589.7 450.2 596C487.7 602.3 525.3 568.7 562.8 569.8C600.3 571 637.7 607 675.2 615.8C712.7 624.7 750.3 606.3 787.8 588.3C825.3 570.3 862.7 552.7 881.3 543.8L900 535L900 0L881.3 0C862.7 0 825.3 0 787.8 0C750.3 0 712.7 0 675.2 0C637.7 0 600.3 0 562.8 0C525.3 0 487.7 0 450.2 0C412.7 0 375.3 0 337.8 0C300.3 0 262.7 0 225.2 0C187.7 0 150.3 0 112.8 0C75.3 0 37.7 0 18.8 0L0 0Z" fill="#5ac2c3"></path><path d="M0 512L18.8 499.2C37.7 486.3 75.3 460.7 112.8 452C150.3 443.3 187.7 451.7 225.2 458.3C262.7 465 300.3 470 337.8 470C375.3 470 412.7 465 450.2 457.8C487.7 450.7 525.3 441.3 562.8 444.8C600.3 448.3 637.7 464.7 675.2 464.8C712.7 465 750.3 449 787.8 433.2C825.3 417.3 862.7 401.7 881.3 393.8L900 386L900 0L881.3 0C862.7 0 825.3 0 787.8 0C750.3 0 712.7 0 675.2 0C637.7 0 600.3 0 562.8 0C525.3 0 487.7 0 450.2 0C412.7 0 375.3 0 337.8 0C300.3 0 262.7 0 225.2 0C187.7 0 150.3 0 112.8 0C75.3 0 37.7 0 18.8 0L0 0Z" fill="#43aab4"></path><path d="M0 298L18.8 305.8C37.7 313.7 75.3 329.3 112.8 345.2C150.3 361 187.7 377 225.2 374.5C262.7 372 300.3 351 337.8 344.8C375.3 338.7 412.7 347.3 450.2 353.8C487.7 360.3 525.3 364.7 562.8 358.5C600.3 352.3 637.7 335.7 675.2 339.7C712.7 343.7 750.3 368.3 787.8 373.8C825.3 379.3 862.7 365.7 881.3 358.8L900 352L900 0L881.3 0C862.7 0 825.3 0 787.8 0C750.3 0 712.7 0 675.2 0C637.7 0 600.3 0 562.8 0C525.3 0 487.7 0 450.2 0C412.7 0 375.3 0 337.8 0C300.3 0 262.7 0 225.2 0C187.7 0 150.3 0 112.8 0C75.3 0 37.7 0 18.8 0L0 0Z" fill="#2f94a4"></path><path d="M0 289L18.8 278.7C37.7 268.3 75.3 247.7 112.8 244.3C150.3 241 187.7 255 225.2 258.8C262.7 262.7 300.3 256.3 337.8 246.5C375.3 236.7 412.7 223.3 450.2 224.5C487.7 225.7 525.3 241.3 562.8 248.3C600.3 255.3 637.7 253.7 675.2 246.5C712.7 239.3 750.3 226.7 787.8 223.2C825.3 219.7 862.7 225.3 881.3 228.2L900 231L900 0L881.3 0C862.7 0 825.3 0 787.8 0C750.3 0 712.7 0 675.2 0C637.7 0 600.3 0 562.8 0C525.3 0 487.7 0 450.2 0C412.7 0 375.3 0 337.8 0C300.3 0 262.7 0 225.2 0C187.7 0 150.3 0 112.8 0C75.3 0 37.7 0 18.8 0L0 0Z" fill="#1c7d93"></path><path d="M0 86L18.8 96.2C37.7 106.3 75.3 126.7 112.8 142.2C150.3 157.7 187.7 168.3 225.2 157C262.7 145.7 300.3 112.3 337.8 110.2C375.3 108 412.7 137 450.2 143.7C487.7 150.3 525.3 134.7 562.8 136.2C600.3 137.7 637.7 156.3 675.2 157.2C712.7 158 750.3 141 787.8 138.5C825.3 136 862.7 148 881.3 154L900 160L900 0L881.3 0C862.7 0 825.3 0 787.8 0C750.3 0 712.7 0 675.2 0C637.7 0 600.3 0 562.8 0C525.3 0 487.7 0 450.2 0C412.7 0 375.3 0 337.8 0C300.3 0 262.7 0 225.2 0C187.7 0 150.3 0 112.8 0C75.3 0 37.7 0 18.8 0L0 0Z" fill="#086781"></path></svg>